HIERARCHY
ROOT pelvis
{
	OFFSET 0.00 0.00 0.00
	CHANNELS 6 Xposition Yposition Zposition Xrotation Yrotation Zrotation
	JOINT lfemur
	{
		OFFSET 0.00000 4.04436 0.00000
		CHANNELS 3 Xrotation Yrotation Zrotation
		JOINT ltibia
		{
			OFFSET 0.00000 0.00000 -16.29375
			CHANNELS 3 Xrotation Yrotation Zrotation
			JOINT lfoot
			{
				OFFSET 0.00000 0.00000 -15.07135
				CHANNELS 3 Xrotation Yrotation Zrotation
				JOINT ltoes
				{
					OFFSET 4.08523 0.00000 0.00000
					CHANNELS 3 Xrotation Yrotation Zrotation
				}
			}
		}
	}
	JOINT rfemur
	{
		OFFSET 0.00000 -4.04436 0.00000
		CHANNELS 3 Xrotation Yrotation Zrotation
		JOINT rtibia
		{
			OFFSET 0.00000 0.00000 -16.29375
			CHANNELS 3 Xrotation Yrotation Zrotation
			JOINT rfoot
			{
				OFFSET 0.00000 0.00000 -15.07135
				CHANNELS 3 Xrotation Yrotation Zrotation
				JOINT rtoes
				{
					OFFSET 4.08523 0.00000 0.00000
					CHANNELS 3 Xrotation Yrotation Zrotation
				}
			}
		}
	}
	JOINT thorax
	{
		OFFSET -1.96850 0.00000 3.38723
		CHANNELS 6 Xposition Yposition Zposition Xrotation Yrotation Zrotation
		JOINT head
		{
			OFFSET 0.00000 0.00000 16.93583
			CHANNELS 6 Xposition Yposition Zposition Xrotation Yrotation Zrotation
		}
		JOINT lclavicle
		{
			OFFSET 0.00000 0.00000 14.46426
			CHANNELS 3 Xrotation Yrotation Zrotation
			JOINT lhumerus
			{
				OFFSET 0.00000 6.07503 0.73740
				CHANNELS 3 Xrotation Yrotation Zrotation
				JOINT lradius
				{
					OFFSET 0.00000 0.00000 -10.44175
					CHANNELS 3 Xrotation Yrotation Zrotation
					JOINT lhand
					{
						OFFSET 0.00000 0.00000 -9.67100
						CHANNELS 3 Xrotation Yrotation Zrotation
					}
				}
			}
		}
		JOINT rclavicle
		{
			OFFSET 0.00000 0.00000 14.46426
			CHANNELS 3 Xrotation Yrotation Zrotation
			JOINT rhumerus
			{
				OFFSET 0.00000 -6.07503 0.73740
				CHANNELS 3 Xrotation Yrotation Zrotation
				JOINT rradius
				{
					OFFSET 0.00000 0.00000 -10.44175
					CHANNELS 3 Xrotation Yrotation Zrotation
					JOINT rhand
					{
						OFFSET 0.00000 0.00000 -9.67100
						CHANNELS 3 Xrotation Yrotation Zrotation
					}
				}
			}
		}
	}
}
MOTION
Frames: 21
Frame Time: 0.008333
 43.9785 13.8038 30.8376 -3.3604 -3.3232 -100.9656 -4.2402 -18.3474 15.0993 -0.0000 43.0082 0.0000 -0.0000 -1.0151 12.7178 0.0000 -18.0963 0.0000 2.1713 -19.7451 14.5311 -0.0000 46.7989 0.0000 -0.0000 -4.5399 -12.2020 0.0000 -18.6856 0.0000 44.1509 16.3180 35.1347 5.2082 17.1907 9.9459 40.3529 12.3510 51.3219 -14.9556 -24.5356 5.0204 -12.9747 0.0000 -5.3009 12.1601 5.8565 38.0315 -0.0000 -78.6291 -14.7304 30.7024 3.2921 0.0000 13.5587 -0.0000 7.3337 -19.6693 -0.4871 16.6700 -0.0000 -82.0891 21.0656 -3.2512 -14.2773 -0.0000
 43.9014 13.7374 31.0354 -3.3189 -2.9257 -101.3288 -3.6101 -17.3514 15.8177 -0.0000 41.4574 0.0000 -0.0000 -0.1817 12.1738 0.0000 -18.5276 -0.0000 2.5036 -18.6554 14.7864 -0.0000 44.7946 0.0000 -0.0000 -3.4989 -12.0288 0.0000 -18.8814 -0.0000 44.1508 16.2349 35.3233 4.8619 16.9234 9.8488 40.5775 12.3756 51.5541 -13.6866 -24.2953 4.7993 -13.3270 0.0000 -5.6008 12.0357 6.4878 34.6780 0.0000 -77.1206 -13.0649 29.3725 3.0887 0.0000 13.8468 0.0000 7.1420 -20.1040 1.2571 14.8657 0.0000 -79.5820 20.9293 -3.0341 -14.0884 0.0000
 43.8030 13.6646 31.2559 -3.3265 -2.6116 -102.1251 -2.8967 -16.0760 17.1952 -0.0000 39.5487 0.0000 -0.0000 0.8300 11.3567 0.0000 -19.1363 0.0000 2.9198 -17.4497 15.6223 -0.0000 42.6108 0.0000 0.0000 -2.3100 -11.9530 0.0000 -19.0003 0.0000 44.1409 16.1408 35.5262 4.2487 16.6796 10.2489 40.8174 12.3990 51.8031 -12.3346 -23.9917 4.5306 -13.6685 0.0000 -5.9155 12.1167 7.1516 30.9178 0.0000 -75.8507 -12.8603 28.2229 2.8271 0.0000 14.0371 -0.0000 7.0315 -20.3637 3.0827 12.6777 0.0000 -77.1814 20.5777 -2.8532 -13.8332 0.0000
 43.6876 13.5883 31.4895 -3.3280 -2.3474 -103.1732 -2.1866 -14.6448 18.9256 -0.0000 37.3998 0.0000 -0.0000 1.9822 10.3889 0.0000 -19.8396 0.0000 3.3488 -16.1885 16.7846 -0.0000 40.2889 0.0000 0.0000 -0.9555 -11.9160 0.0000 -19.2326 0.0000 44.1212 16.0513 35.7413 3.4491 16.4452 10.9294 41.0742 12.4192 52.0597 -10.8331 -23.7059 4.2871 -13.9574 0.0000 -6.3013 12.2806 7.8130 27.0169 0.0000 -74.9522 -14.1119 27.0040 2.4784 0.0000 14.1496 -0.0000 6.9025 -20.5222 4.7757 10.2510 0.0000 -74.8873 19.9057 -2.3702 -13.6091 -0.0000
 43.5621 13.5103 31.7283 -3.3066 -2.0880 -104.3742 -1.4980 -13.1113 20.8837 -0.0000 35.0859 0.0000 0.0000 3.2517 9.2397 0.0000 -20.7458 -0.0000 3.7791 -14.8827 18.1700 -0.0000 37.8450 0.0000 -0.0000 0.5275 -11.9490 0.0000 -19.5540 -0.0000 44.0924 15.9608 35.9612 2.5566 16.1604 11.8036 41.3448 12.4348 52.3157 -9.2322 -23.4033 3.9914 -14.1858 0.0000 -6.7074 12.4896 8.4376 23.0423 -0.0000 -74.4578 -16.5736 25.7469 1.9154 -0.0000 14.1549 0.0000 6.7806 -20.5438 6.3655 7.5746 0.0000 -72.7328 18.8398 -1.7418 -13.4538 0.0000
 43.4343 13.4364 31.9642 -3.1633 -1.8039 -105.4270 -0.8700 -11.7143 22.6584 -0.0000 32.8035 0.0000 -0.0000 4.5915 8.0946 0.0000 -21.6010 -0.0000 4.1516 -13.6449 19.4046 -0.0000 35.3342 -0.0000 -0.0000 2.0648 -11.9742 0.0000 -19.9069 0.0000 44.0523 15.8742 36.1808 1.7063 15.7428 12.4598 41.6283 12.4411 52.5656 -7.4607 -23.1504 3.8517 -14.3599 0.0000 -7.0604 12.7124 8.9920 19.2133 0.0000 -74.4552 -19.9981 24.0020 1.5043 0.0000 14.0682 -0.0000 6.6115 -20.4608 7.7096 4.8647 -0.0000 -70.6873 17.4386 -1.4323 -13.5665 0.0000
 43.3225 13.3671 32.1894 -2.8830 -1.4942 -106.2504 -0.3675 -10.4914 24.0152 -0.0000 30.5419 0.0000 -0.0000 5.9097 7.0057 0.0000 -22.6300 0.0000 4.4063 -12.5264 20.2667 -0.0000 32.7699 0.0000 0.0000 3.7014 -11.8226 0.0000 -20.4638 -0.0000 44.0098 15.7852 36.3941 0.9846 15.1455 12.9294 41.9147 12.4418 52.8018 -5.7472 -22.8509 3.5326 -14.4861 0.0000 -7.3974 12.9767 9.4407 15.4224 0.0000 -74.8492 -23.5238 22.2507 0.7543 0.0000 13.8388 0.0000 6.4494 -20.2385 8.9723 1.9220 -0.0000 -68.9205 15.8101 -1.2021 -13.5530 0.0000
 43.2307 13.3089 32.4021 -2.4564 -1.2223 -106.7236 -0.0422 -9.5736 24.6846 -0.0000 28.4201 -0.0000 0.0000 7.2167 6.1694 0.0000 -23.7076 0.0000 4.5139 -11.6474 20.6067 -0.0000 30.3561 0.0000 0.0000 5.2031 -11.4702 0.0000 -20.7748 0.0000 43.9500 15.6930 36.5847 0.3140 14.3282 13.0081 42.2044 12.4305 53.0141 -3.9666 -22.5453 3.2839 -14.5263 0.0000 -7.7903 13.3419 10.0589 11.6520 0.0000 -76.0168 -26.3604 20.5542 0.2462 0.0000 13.3099 -0.0000 6.3031 -19.5606 10.1888 -1.1862 0.0000 -67.4635 14.3285 -1.3838 -13.8358 -0.0000
 43.1673 13.2507 32.5915 -1.8944 -0.8680 -106.5457 0.2148 -8.9948 24.5376 -0.0000 26.5779 -0.0000 -0.0000 8.2728 5.4238 0.0000 -24.2836 -0.0000 4.4815 -10.7930 20.1176 -0.0000 27.7239 0.0000 0.0000 6.9969 -10.9721 0.0000 -21.6951 0.0000 43.9168 15.6149 36.7841 0.0270 13.5051 12.3956 42.4848 12.4184 53.2144 -2.4333 -22.2834 2.9166 -14.6102 0.0000 -7.7481 13.7303 9.8135 8.0649 0.0000 -76.8548 -29.4220 17.9677 -0.8981 0.0000 13.0965 -0.0000 6.0857 -19.5523 11.0707 -4.3731 -0.0000 -66.1595 13.0386 -1.2397 -14.3455 0.0000
 43.1274 13.2043 32.7602 -1.0898 -0.3762 -105.8388 0.5431 -8.8669 23.4933 -0.0000 25.0314 0.0000 0.0000 9.1479 4.9808 0.0000 -25.0876 -0.0000 4.5189 -10.2078 18.9167 -0.0000 25.2115 0.0000 -0.0000 8.7508 -10.2223 0.0000 -22.4352 0.0000 43.8690 15.5315 36.9555 0.0120 12.4294 11.1940 42.7616 12.4003 53.3819 -0.9154 -21.9553 2.5643 -14.6302 0.0000 -7.7711 14.2655 9.7037 4.5378 0.0000 -78.3727 -31.2113 15.5215 -1.7980 0.0000 12.7120 -0.0000 5.9017 -19.2954 11.9822 -7.5620 0.0000 -65.2512 12.2178 -1.5368 -14.6361 0.0000
 43.1008 13.1675 32.9077 -0.1072 0.0033 -104.9117 0.7656 -9.1210 22.0726 -0.0000 23.7229 0.0000 -0.0000 9.8576 4.7076 0.0000 -25.5042 -0.0000 4.4763 -9.9571 17.3192 -0.0000 22.9323 0.0000 0.0000 10.3921 -9.2738 0.0000 -23.0555 -0.0000 43.8247 15.4461 37.1032 -0.0150 11.1454 9.7368 43.0318 12.3762 53.5241 0.4541 -21.6149 2.1442 -14.6016 0.0000 -7.7945 14.8406 9.4729 1.2021 0.0000 -80.1998 -32.2141 13.5223 -2.8332 0.0000 12.3226 -0.0000 5.7230 -19.0444 12.8224 -10.8993 -0.0000 -64.6166 12.0717 -1.7889 -14.8153 0.0000
 43.0821 13.1310 33.0331 0.8736 0.3184 -103.9431 0.9006 -9.4781 20.5127 -0.0000 22.5226 -0.0000 -0.0000 10.5271 4.5758 0.0000 -26.0021 -0.0000 4.3747 -9.8392 15.5001 -0.0000 20.8936 0.0000 0.0000 11.9124 -8.1065 0.0000 -23.6267 -0.0000 43.7791 15.3662 37.2273 -0.1275 9.8630 8.2342 43.2909 12.3522 53.6367 1.6972 -21.2378 1.6978 -14.5138 0.0000 -7.7494 15.4722 8.9991 -1.9912 0.0000 -82.2179 -32.7828 11.4895 -3.5999 0.0000 11.9770 -0.0000 5.5519 -18.9109 13.6124 -14.1999 0.0000 -64.2625 12.4956 -2.2002 -14.7738 0.0000
 43.0583 13.0964 33.1404 1.7881 0.6314 -103.0607 1.0618 -9.8414 19.0586 -0.0000 21.4622 0.0000 -0.0000 11.0904 4.5316 0.0000 -26.1812 -0.0000 4.3414 -9.7615 13.7873 -0.0000 19.0820 0.0000 -0.0000 13.2775 -6.9997 0.0000 -23.9991 0.0000 43.7339 15.2811 37.3241 -0.2798 8.6271 6.8079 43.5393 12.3245 53.7250 2.7856 -20.8264 1.1566 -14.3834 0.0000 -7.7543 16.0954 8.4279 -4.9128 0.0000 -84.3596 -33.3273 10.4024 -4.3344 -0.0000 11.7156 -0.0000 5.4117 -18.8721 14.3952 -17.6184 0.0000 -64.2012 13.3916 -2.4015 -14.3349 -0.0000
 43.0221 13.0613 33.2264 2.5244 0.9199 -102.4356 1.2405 -10.0305 17.9832 -0.0000 20.4362 0.0000 0.0000 11.6481 4.5100 0.0000 -26.5314 -0.0000 4.3625 -9.6464 12.3591 -0.0000 17.5491 0.0000 0.0000 14.4764 -5.8831 0.0000 -24.2810 0.0000 43.6942 15.2087 37.3971 -0.5361 7.6195 5.6549 43.7774 12.2968 53.7866 3.7716 -20.4356 0.6275 -14.2343 0.0000 -7.7264 16.7259 7.6035 -7.6178 0.0000 -86.5335 -34.3359 9.7734 -4.7647 0.0000 11.5022 0.0000 5.2162 -19.0186 15.0575 -20.8607 -0.0000 -64.3459 14.3602 -2.7287 -13.7029 -0.0000
 42.9721 13.0334 33.2942 3.1289 1.1867 -102.0238 1.4857 -10.1589 17.3151 -0.0000 19.5736 -0.0000 0.0000 12.0944 4.4683 0.0000 -26.5979 -0.0000 4.4661 -9.5159 11.3538 -0.0000 16.2344 0.0000 0.0000 15.5159 -5.0005 0.0000 -24.4100 0.0000 43.6522 15.1338 37.4450 -0.8686 6.7223 4.6955 44.0069 12.2670 53.8289 4.6720 -20.0140 0.0427 -14.0869 0.0000 -7.7755 17.3474 6.7156 -9.9578 0.0000 -88.6817 -35.9369 10.1813 -5.1479 0.0000 11.3770 -0.0000 5.0722 -19.2928 15.7035 -24.1129 0.0000 -64.7051 15.1973 -2.7997 -12.8824 -0.0000
 42.9046 13.0110 33.3408 3.5155 1.3856 -101.9264 1.7508 -10.0917 17.2501 -0.0000 18.8054 0.0000 0.0000 12.4476 4.2610 0.0000 -26.5449 -0.0000 4.6063 -9.3056 10.8587 -0.0000 15.1558 0.0000 0.0000 16.3532 -4.2840 0.0000 -24.5342 0.0000 43.6132 15.0728 37.4715 -1.3500 6.0742 4.0382 44.2294 12.2372 53.8495 5.5630 -19.6148 -0.4782 -13.9562 0.0000 -7.8373 17.9645 5.6382 -11.9468 180.0000 -89.2235 141.8270 10.9466 -5.2782 0.0000 11.2995 -0.0000 4.9449 -19.7454 16.2222 -27.1958 0.0000 -65.1442 15.6344 -3.0063 -12.2081 0.0000
 42.8361 12.9967 33.3704 3.8102 1.5817 -101.9039 2.0204 -10.0006 17.3020 -0.0000 18.1557 0.0000 0.0000 12.6543 4.1865 0.0000 -26.2022 -0.0000 4.7863 -9.0864 10.5880 -0.0000 14.2267 0.0000 0.0000 17.0365 -3.7847 0.0000 -24.5426 0.0000 43.5734 15.0149 37.4767 -1.8343 5.5172 3.4758 44.4423 12.2054 53.8539 6.3561 -19.2164 -1.0556 -13.8661 0.0000 -7.9662 18.5948 4.4563 -13.5883 180.0000 -87.2289 139.4064 12.2842 -5.3934 0.0000 11.2247 0.0000 4.8412 -20.2634 16.6502 -30.2769 0.0000 -65.6373 15.7933 -2.9430 -11.5972 -0.0000
 42.7691 12.9874 33.3812 4.0039 1.7709 -101.8577 2.2570 -9.8876 17.3341 -0.0000 17.6399 -0.0000 -0.0000 12.6932 4.1955 0.0000 -25.6784 -0.0000 4.9541 -8.8375 10.2572 -0.0000 13.4299 0.0000 0.0000 17.5300 -3.2789 0.0000 -24.5768 -0.0000 43.5362 14.9674 37.4634 -2.3313 5.0884 2.9151 44.6481 12.1763 53.8414 7.1218 -18.8082 -1.6083 -13.7828 0.0000 -8.1327 19.1871 3.1087 -14.8962 180.0000 -85.3130 137.2170 13.5235 -5.3289 0.0000 11.1671 0.0000 4.7785 -20.9190 16.9910 -33.2371 -0.0000 -66.1071 15.5491 -2.9890 -11.3285 -0.0000
 42.7017 12.9814 33.3760 4.1122 1.9576 -101.7973 2.4714 -9.7484 17.3287 -0.0000 17.2255 -0.0000 -0.0000 12.5993 4.2804 0.0000 -24.9582 0.0000 5.1329 -8.5561 9.9379 -0.0000 12.7478 0.0000 0.0000 17.8331 -2.8982 0.0000 -24.5591 -0.0000 43.4981 14.9254 37.4333 -2.8384 4.7560 2.3214 44.8475 12.1515 53.8151 7.8700 -18.3617 -2.1028 -13.6987 0.0000 -8.3186 19.7463 1.6575 -15.8921 -180.0000 -83.4122 135.7845 14.5400 -5.1160 0.0000 11.1126 -0.0000 4.7839 -21.6699 17.2465 -36.0762 -0.0000 -66.5025 15.0443 -3.1475 -11.3191 0.0000
 42.6359 12.9774 33.3575 4.1224 2.1297 -101.7347 2.6438 -9.5640 17.2694 -0.0000 16.9010 0.0000 0.0000 12.3914 4.4431 0.0000 -24.1329 -0.0000 5.2995 -8.2217 9.6070 -0.0000 12.1603 0.0000 0.0000 17.9512 -2.6060 0.0000 -24.5350 -0.0000 43.4616 14.8891 37.3898 -3.3606 4.5355 1.7191 45.0391 12.1325 53.7764 8.5737 -17.8793 -2.5436 -13.5976 -0.0000 -8.5011 20.2496 0.0951 -16.6545 180.0000 -81.5374 135.4211 15.3101 -4.8279 0.0000 11.0726 -0.0000 4.8496 -22.5218 17.4306 -38.7960 0.0000 -66.8212 14.4400 -3.3733 -11.4518 0.0000
 42.5722 12.9718 33.3291 3.9953 2.2848 -101.6813 2.7580 -9.2730 17.1273 -0.0000 16.6322 0.0000 0.0000 12.1264 4.6746 0.0000 -23.3866 -0.0000 5.4381 -7.7895 9.2338 -0.0000 11.6603 0.0000 0.0000 17.9011 -2.3708 -0.0000 -24.4205 -0.0000 43.4244 14.8569 37.3352 -3.9138 4.4625 1.1374 45.2245 12.1206 53.7275 9.2389 -17.3537 -2.9507 -13.4452 0.0000 -8.6620 20.6590 -1.5671 -17.2435 180.0000 -79.6864 136.2127 15.8950 -4.4918 0.0000 11.0495 -0.0000 4.9417 -23.4590 17.5514 -41.3478 0.0000 -67.0510 13.7951 -3.8295 -11.7972 0.0000
